<mxfile host="app.diagrams.net" modified="2023-09-20T13:41:20.422Z" agent="Mozilla/5.0 (Windows NT 10.0; Win64; x64) AppleWebKit/537.36 (KHTML, like Gecko) Chrome/116.0.0.0 Safari/537.36" version="21.7.5" etag="WnxUTrBzyRpWVWP1gg97" type="github">
  <diagram name="Page-1" id="13TumKJ4YbEhVRQkvlHc">
    <mxGraphModel>
      <root>
        <mxCell id="0" />
        <mxCell id="1" parent="0" />
      </root>
    </mxGraphModel>
  </diagram>
</mxfile>
